<mxfile host="app.diagrams.net" modified="2024-02-08T21:33:06.538Z" agent="Mozilla/5.0 (Windows NT 10.0; Win64; x64) AppleWebKit/537.36 (KHTML, like Gecko) Chrome/121.0.0.0 Safari/537.36" etag="XDZjGpyAr7tpUgJhbJb3" version="23.1.2" type="device">
  <diagram name="Page-1" id="DKHIjUAau7XieoaLet7x">
    <mxGraphModel dx="1050" dy="530" grid="1" gridSize="10" guides="1" tooltips="1" connect="1" arrows="1" fold="1" page="1" pageScale="1" pageWidth="850" pageHeight="1100" math="0" shadow="0">
      <root>
        <mxCell id="0" />
        <mxCell id="1" parent="0" />
        <mxCell id="0sKz9qopvy_IyiF4oSCB-1" value="" style="rounded=1;whiteSpace=wrap;html=1;" vertex="1" parent="1">
          <mxGeometry x="80" y="70" width="120" height="60" as="geometry" />
        </mxCell>
        <mxCell id="0sKz9qopvy_IyiF4oSCB-2" value="" style="rounded=1;whiteSpace=wrap;html=1;" vertex="1" parent="1">
          <mxGeometry x="230" y="70" width="120" height="60" as="geometry" />
        </mxCell>
        <mxCell id="0sKz9qopvy_IyiF4oSCB-3" value="" style="rounded=1;whiteSpace=wrap;html=1;" vertex="1" parent="1">
          <mxGeometry x="380" y="70" width="120" height="60" as="geometry" />
        </mxCell>
        <mxCell id="0sKz9qopvy_IyiF4oSCB-4" value="" style="rounded=1;whiteSpace=wrap;html=1;" vertex="1" parent="1">
          <mxGeometry x="530" y="70" width="120" height="60" as="geometry" />
        </mxCell>
        <mxCell id="0sKz9qopvy_IyiF4oSCB-5" value="" style="rounded=1;whiteSpace=wrap;html=1;" vertex="1" parent="1">
          <mxGeometry x="680" y="70" width="120" height="60" as="geometry" />
        </mxCell>
        <mxCell id="0sKz9qopvy_IyiF4oSCB-6" value="angular-website" style="text;html=1;strokeColor=none;fillColor=none;align=center;verticalAlign=middle;whiteSpace=wrap;rounded=0;" vertex="1" parent="1">
          <mxGeometry x="110" y="85" width="60" height="30" as="geometry" />
        </mxCell>
        <mxCell id="0sKz9qopvy_IyiF4oSCB-7" value="java_organizer" style="text;html=1;strokeColor=none;fillColor=none;align=center;verticalAlign=middle;whiteSpace=wrap;rounded=0;" vertex="1" parent="1">
          <mxGeometry x="260" y="85" width="60" height="30" as="geometry" />
        </mxCell>
        <mxCell id="0sKz9qopvy_IyiF4oSCB-8" value="mqtt_broker" style="text;html=1;strokeColor=none;fillColor=none;align=center;verticalAlign=middle;whiteSpace=wrap;rounded=0;" vertex="1" parent="1">
          <mxGeometry x="410" y="85" width="60" height="30" as="geometry" />
        </mxCell>
        <mxCell id="0sKz9qopvy_IyiF4oSCB-9" value="java_grading" style="text;html=1;strokeColor=none;fillColor=none;align=center;verticalAlign=middle;whiteSpace=wrap;rounded=0;" vertex="1" parent="1">
          <mxGeometry x="560" y="85" width="60" height="30" as="geometry" />
        </mxCell>
        <mxCell id="0sKz9qopvy_IyiF4oSCB-10" value="database" style="text;html=1;strokeColor=none;fillColor=none;align=center;verticalAlign=middle;whiteSpace=wrap;rounded=0;" vertex="1" parent="1">
          <mxGeometry x="710" y="85" width="60" height="30" as="geometry" />
        </mxCell>
        <mxCell id="0sKz9qopvy_IyiF4oSCB-11" value="" style="endArrow=none;html=1;rounded=0;entryX=0.5;entryY=1;entryDx=0;entryDy=0;" edge="1" parent="1" source="0sKz9qopvy_IyiF4oSCB-16" target="0sKz9qopvy_IyiF4oSCB-1">
          <mxGeometry width="50" height="50" relative="1" as="geometry">
            <mxPoint x="140" y="500" as="sourcePoint" />
            <mxPoint x="450" y="220" as="targetPoint" />
          </mxGeometry>
        </mxCell>
        <mxCell id="0sKz9qopvy_IyiF4oSCB-12" value="" style="endArrow=none;html=1;rounded=0;entryX=0.5;entryY=1;entryDx=0;entryDy=0;" edge="1" parent="1" source="0sKz9qopvy_IyiF4oSCB-18">
          <mxGeometry width="50" height="50" relative="1" as="geometry">
            <mxPoint x="289.5" y="500" as="sourcePoint" />
            <mxPoint x="289.5" y="130" as="targetPoint" />
          </mxGeometry>
        </mxCell>
        <mxCell id="0sKz9qopvy_IyiF4oSCB-13" value="" style="endArrow=none;html=1;rounded=0;entryX=0.5;entryY=1;entryDx=0;entryDy=0;" edge="1" parent="1" source="0sKz9qopvy_IyiF4oSCB-20">
          <mxGeometry width="50" height="50" relative="1" as="geometry">
            <mxPoint x="439.5" y="500" as="sourcePoint" />
            <mxPoint x="439.5" y="130" as="targetPoint" />
          </mxGeometry>
        </mxCell>
        <mxCell id="0sKz9qopvy_IyiF4oSCB-14" value="" style="endArrow=none;html=1;rounded=0;entryX=0.5;entryY=1;entryDx=0;entryDy=0;" edge="1" parent="1" source="0sKz9qopvy_IyiF4oSCB-22">
          <mxGeometry width="50" height="50" relative="1" as="geometry">
            <mxPoint x="589.5" y="500" as="sourcePoint" />
            <mxPoint x="589.5" y="130" as="targetPoint" />
          </mxGeometry>
        </mxCell>
        <mxCell id="0sKz9qopvy_IyiF4oSCB-15" value="" style="endArrow=none;html=1;rounded=0;entryX=0.5;entryY=1;entryDx=0;entryDy=0;" edge="1" parent="1" source="0sKz9qopvy_IyiF4oSCB-24">
          <mxGeometry width="50" height="50" relative="1" as="geometry">
            <mxPoint x="739.5" y="500" as="sourcePoint" />
            <mxPoint x="739.5" y="130" as="targetPoint" />
          </mxGeometry>
        </mxCell>
        <mxCell id="0sKz9qopvy_IyiF4oSCB-17" value="" style="endArrow=none;html=1;rounded=0;entryX=0.5;entryY=1;entryDx=0;entryDy=0;" edge="1" parent="1" source="0sKz9qopvy_IyiF4oSCB-30" target="0sKz9qopvy_IyiF4oSCB-16">
          <mxGeometry width="50" height="50" relative="1" as="geometry">
            <mxPoint x="140" y="500" as="sourcePoint" />
            <mxPoint x="140" y="130" as="targetPoint" />
          </mxGeometry>
        </mxCell>
        <mxCell id="0sKz9qopvy_IyiF4oSCB-16" value="" style="rounded=0;whiteSpace=wrap;html=1;" vertex="1" parent="1">
          <mxGeometry x="130" y="150" width="20" height="40" as="geometry" />
        </mxCell>
        <mxCell id="0sKz9qopvy_IyiF4oSCB-19" value="" style="endArrow=none;html=1;rounded=0;entryX=0.5;entryY=1;entryDx=0;entryDy=0;" edge="1" parent="1" target="0sKz9qopvy_IyiF4oSCB-18">
          <mxGeometry width="50" height="50" relative="1" as="geometry">
            <mxPoint x="290" y="230" as="sourcePoint" />
            <mxPoint x="289.5" y="130" as="targetPoint" />
          </mxGeometry>
        </mxCell>
        <mxCell id="0sKz9qopvy_IyiF4oSCB-18" value="" style="rounded=0;whiteSpace=wrap;html=1;" vertex="1" parent="1">
          <mxGeometry x="280" y="150" width="20" height="40" as="geometry" />
        </mxCell>
        <mxCell id="0sKz9qopvy_IyiF4oSCB-21" value="" style="endArrow=none;html=1;rounded=0;entryX=0.5;entryY=1;entryDx=0;entryDy=0;" edge="1" parent="1" target="0sKz9qopvy_IyiF4oSCB-20">
          <mxGeometry width="50" height="50" relative="1" as="geometry">
            <mxPoint x="440" y="230" as="sourcePoint" />
            <mxPoint x="439.5" y="130" as="targetPoint" />
          </mxGeometry>
        </mxCell>
        <mxCell id="0sKz9qopvy_IyiF4oSCB-20" value="" style="rounded=0;whiteSpace=wrap;html=1;" vertex="1" parent="1">
          <mxGeometry x="430" y="150" width="20" height="40" as="geometry" />
        </mxCell>
        <mxCell id="0sKz9qopvy_IyiF4oSCB-23" value="" style="endArrow=none;html=1;rounded=0;entryX=0.5;entryY=1;entryDx=0;entryDy=0;" edge="1" parent="1" target="0sKz9qopvy_IyiF4oSCB-22">
          <mxGeometry width="50" height="50" relative="1" as="geometry">
            <mxPoint x="590" y="230" as="sourcePoint" />
            <mxPoint x="589.5" y="130" as="targetPoint" />
          </mxGeometry>
        </mxCell>
        <mxCell id="0sKz9qopvy_IyiF4oSCB-22" value="" style="rounded=0;whiteSpace=wrap;html=1;" vertex="1" parent="1">
          <mxGeometry x="580" y="150" width="20" height="40" as="geometry" />
        </mxCell>
        <mxCell id="0sKz9qopvy_IyiF4oSCB-25" value="" style="endArrow=none;html=1;rounded=0;entryX=0.5;entryY=1;entryDx=0;entryDy=0;" edge="1" parent="1" source="0sKz9qopvy_IyiF4oSCB-38" target="0sKz9qopvy_IyiF4oSCB-24">
          <mxGeometry width="50" height="50" relative="1" as="geometry">
            <mxPoint x="739.5" y="500" as="sourcePoint" />
            <mxPoint x="739.5" y="130" as="targetPoint" />
          </mxGeometry>
        </mxCell>
        <mxCell id="0sKz9qopvy_IyiF4oSCB-24" value="" style="rounded=0;whiteSpace=wrap;html=1;" vertex="1" parent="1">
          <mxGeometry x="730" y="150" width="20" height="40" as="geometry" />
        </mxCell>
        <mxCell id="0sKz9qopvy_IyiF4oSCB-26" value="" style="endArrow=classic;html=1;rounded=0;exitX=1;exitY=0.5;exitDx=0;exitDy=0;entryX=0;entryY=0.5;entryDx=0;entryDy=0;" edge="1" parent="1" source="0sKz9qopvy_IyiF4oSCB-16" target="0sKz9qopvy_IyiF4oSCB-18">
          <mxGeometry width="50" height="50" relative="1" as="geometry">
            <mxPoint x="400" y="290" as="sourcePoint" />
            <mxPoint x="450" y="240" as="targetPoint" />
          </mxGeometry>
        </mxCell>
        <mxCell id="0sKz9qopvy_IyiF4oSCB-61" value="submit request" style="edgeLabel;html=1;align=center;verticalAlign=middle;resizable=0;points=[];" vertex="1" connectable="0" parent="0sKz9qopvy_IyiF4oSCB-26">
          <mxGeometry x="-0.1754" y="-1" relative="1" as="geometry">
            <mxPoint as="offset" />
          </mxGeometry>
        </mxCell>
        <mxCell id="0sKz9qopvy_IyiF4oSCB-27" value="" style="endArrow=classic;html=1;rounded=0;exitX=1;exitY=0.5;exitDx=0;exitDy=0;entryX=0;entryY=0.5;entryDx=0;entryDy=0;" edge="1" parent="1">
          <mxGeometry width="50" height="50" relative="1" as="geometry">
            <mxPoint x="300" y="169.5" as="sourcePoint" />
            <mxPoint x="430" y="169.5" as="targetPoint" />
          </mxGeometry>
        </mxCell>
        <mxCell id="0sKz9qopvy_IyiF4oSCB-62" value="publish" style="edgeLabel;html=1;align=center;verticalAlign=middle;resizable=0;points=[];" vertex="1" connectable="0" parent="0sKz9qopvy_IyiF4oSCB-27">
          <mxGeometry x="-0.2523" y="-1" relative="1" as="geometry">
            <mxPoint as="offset" />
          </mxGeometry>
        </mxCell>
        <mxCell id="0sKz9qopvy_IyiF4oSCB-28" value="" style="endArrow=classic;html=1;rounded=0;exitX=1;exitY=0.5;exitDx=0;exitDy=0;entryX=0;entryY=0.5;entryDx=0;entryDy=0;" edge="1" parent="1">
          <mxGeometry width="50" height="50" relative="1" as="geometry">
            <mxPoint x="450" y="169.5" as="sourcePoint" />
            <mxPoint x="580" y="169.5" as="targetPoint" />
          </mxGeometry>
        </mxCell>
        <mxCell id="0sKz9qopvy_IyiF4oSCB-63" value="consume" style="edgeLabel;html=1;align=center;verticalAlign=middle;resizable=0;points=[];" vertex="1" connectable="0" parent="0sKz9qopvy_IyiF4oSCB-28">
          <mxGeometry x="-0.4062" relative="1" as="geometry">
            <mxPoint x="11" y="1" as="offset" />
          </mxGeometry>
        </mxCell>
        <mxCell id="0sKz9qopvy_IyiF4oSCB-29" value="" style="endArrow=classic;html=1;rounded=0;exitX=1;exitY=0.5;exitDx=0;exitDy=0;entryX=0;entryY=0.5;entryDx=0;entryDy=0;" edge="1" parent="1">
          <mxGeometry width="50" height="50" relative="1" as="geometry">
            <mxPoint x="600" y="169.5" as="sourcePoint" />
            <mxPoint x="730" y="169.5" as="targetPoint" />
          </mxGeometry>
        </mxCell>
        <mxCell id="0sKz9qopvy_IyiF4oSCB-64" value="save" style="edgeLabel;html=1;align=center;verticalAlign=middle;resizable=0;points=[];" vertex="1" connectable="0" parent="0sKz9qopvy_IyiF4oSCB-29">
          <mxGeometry x="-0.3908" y="-1" relative="1" as="geometry">
            <mxPoint x="10" as="offset" />
          </mxGeometry>
        </mxCell>
        <mxCell id="0sKz9qopvy_IyiF4oSCB-31" value="" style="endArrow=none;html=1;rounded=0;entryX=0.5;entryY=1;entryDx=0;entryDy=0;" edge="1" parent="1" source="0sKz9qopvy_IyiF4oSCB-45" target="0sKz9qopvy_IyiF4oSCB-30">
          <mxGeometry width="50" height="50" relative="1" as="geometry">
            <mxPoint x="140" y="500" as="sourcePoint" />
            <mxPoint x="140" y="190" as="targetPoint" />
          </mxGeometry>
        </mxCell>
        <mxCell id="0sKz9qopvy_IyiF4oSCB-30" value="" style="rounded=0;whiteSpace=wrap;html=1;" vertex="1" parent="1">
          <mxGeometry x="130" y="230" width="20" height="40" as="geometry" />
        </mxCell>
        <mxCell id="0sKz9qopvy_IyiF4oSCB-33" value="" style="endArrow=none;html=1;rounded=0;entryX=0.5;entryY=1;entryDx=0;entryDy=0;" edge="1" parent="1">
          <mxGeometry width="50" height="50" relative="1" as="geometry">
            <mxPoint x="290" y="310" as="sourcePoint" />
            <mxPoint x="290" y="270" as="targetPoint" />
          </mxGeometry>
        </mxCell>
        <mxCell id="0sKz9qopvy_IyiF4oSCB-35" value="" style="endArrow=none;html=1;rounded=0;entryX=0.5;entryY=1;entryDx=0;entryDy=0;" edge="1" parent="1">
          <mxGeometry width="50" height="50" relative="1" as="geometry">
            <mxPoint x="440" y="310" as="sourcePoint" />
            <mxPoint x="440" y="270" as="targetPoint" />
          </mxGeometry>
        </mxCell>
        <mxCell id="0sKz9qopvy_IyiF4oSCB-37" value="" style="endArrow=none;html=1;rounded=0;entryX=0.5;entryY=1;entryDx=0;entryDy=0;" edge="1" parent="1">
          <mxGeometry width="50" height="50" relative="1" as="geometry">
            <mxPoint x="589.5" y="500" as="sourcePoint" />
            <mxPoint x="590" y="270" as="targetPoint" />
          </mxGeometry>
        </mxCell>
        <mxCell id="0sKz9qopvy_IyiF4oSCB-39" value="" style="endArrow=none;html=1;rounded=0;entryX=0.5;entryY=1;entryDx=0;entryDy=0;" edge="1" parent="1" source="0sKz9qopvy_IyiF4oSCB-53" target="0sKz9qopvy_IyiF4oSCB-38">
          <mxGeometry width="50" height="50" relative="1" as="geometry">
            <mxPoint x="739.5" y="500" as="sourcePoint" />
            <mxPoint x="740" y="190" as="targetPoint" />
          </mxGeometry>
        </mxCell>
        <mxCell id="0sKz9qopvy_IyiF4oSCB-38" value="" style="rounded=0;whiteSpace=wrap;html=1;" vertex="1" parent="1">
          <mxGeometry x="730" y="230" width="20" height="40" as="geometry" />
        </mxCell>
        <mxCell id="0sKz9qopvy_IyiF4oSCB-40" value="" style="rounded=0;whiteSpace=wrap;html=1;" vertex="1" parent="1">
          <mxGeometry x="580" y="230" width="20" height="40" as="geometry" />
        </mxCell>
        <mxCell id="0sKz9qopvy_IyiF4oSCB-41" value="" style="endArrow=classic;html=1;rounded=0;exitX=1;exitY=0.5;exitDx=0;exitDy=0;entryX=0;entryY=0.5;entryDx=0;entryDy=0;" edge="1" parent="1">
          <mxGeometry width="50" height="50" relative="1" as="geometry">
            <mxPoint x="150" y="240" as="sourcePoint" />
            <mxPoint x="580" y="240" as="targetPoint" />
          </mxGeometry>
        </mxCell>
        <mxCell id="0sKz9qopvy_IyiF4oSCB-65" value="get grades by name" style="edgeLabel;html=1;align=center;verticalAlign=middle;resizable=0;points=[];" vertex="1" connectable="0" parent="0sKz9qopvy_IyiF4oSCB-41">
          <mxGeometry x="-0.1181" y="2" relative="1" as="geometry">
            <mxPoint as="offset" />
          </mxGeometry>
        </mxCell>
        <mxCell id="0sKz9qopvy_IyiF4oSCB-42" value="" style="endArrow=classic;html=1;rounded=0;exitX=1;exitY=0.25;exitDx=0;exitDy=0;entryX=0;entryY=0.25;entryDx=0;entryDy=0;" edge="1" parent="1" source="0sKz9qopvy_IyiF4oSCB-40" target="0sKz9qopvy_IyiF4oSCB-38">
          <mxGeometry width="50" height="50" relative="1" as="geometry">
            <mxPoint x="400" y="290" as="sourcePoint" />
            <mxPoint x="450" y="240" as="targetPoint" />
          </mxGeometry>
        </mxCell>
        <mxCell id="0sKz9qopvy_IyiF4oSCB-66" value="find by name" style="edgeLabel;html=1;align=center;verticalAlign=middle;resizable=0;points=[];" vertex="1" connectable="0" parent="0sKz9qopvy_IyiF4oSCB-42">
          <mxGeometry x="-0.4369" y="1" relative="1" as="geometry">
            <mxPoint x="23" as="offset" />
          </mxGeometry>
        </mxCell>
        <mxCell id="0sKz9qopvy_IyiF4oSCB-43" value="" style="endArrow=classic;html=1;rounded=0;exitX=0;exitY=0.75;exitDx=0;exitDy=0;entryX=1;entryY=0.75;entryDx=0;entryDy=0;" edge="1" parent="1" source="0sKz9qopvy_IyiF4oSCB-38" target="0sKz9qopvy_IyiF4oSCB-40">
          <mxGeometry width="50" height="50" relative="1" as="geometry">
            <mxPoint x="400" y="290" as="sourcePoint" />
            <mxPoint x="450" y="240" as="targetPoint" />
          </mxGeometry>
        </mxCell>
        <mxCell id="0sKz9qopvy_IyiF4oSCB-69" value="list of grades" style="edgeLabel;html=1;align=center;verticalAlign=middle;resizable=0;points=[];" vertex="1" connectable="0" parent="0sKz9qopvy_IyiF4oSCB-43">
          <mxGeometry x="0.4215" y="2" relative="1" as="geometry">
            <mxPoint x="22" as="offset" />
          </mxGeometry>
        </mxCell>
        <mxCell id="0sKz9qopvy_IyiF4oSCB-44" value="" style="endArrow=none;html=1;rounded=0;exitX=1;exitY=0.5;exitDx=0;exitDy=0;entryX=0;entryY=0.5;entryDx=0;entryDy=0;startArrow=classic;startFill=1;endFill=0;" edge="1" parent="1">
          <mxGeometry width="50" height="50" relative="1" as="geometry">
            <mxPoint x="150" y="260" as="sourcePoint" />
            <mxPoint x="580" y="260" as="targetPoint" />
          </mxGeometry>
        </mxCell>
        <mxCell id="0sKz9qopvy_IyiF4oSCB-68" value="display list of grades" style="edgeLabel;html=1;align=center;verticalAlign=middle;resizable=0;points=[];" vertex="1" connectable="0" parent="0sKz9qopvy_IyiF4oSCB-44">
          <mxGeometry x="-0.3042" relative="1" as="geometry">
            <mxPoint x="40" as="offset" />
          </mxGeometry>
        </mxCell>
        <mxCell id="0sKz9qopvy_IyiF4oSCB-46" value="" style="endArrow=none;html=1;rounded=0;entryX=0.5;entryY=1;entryDx=0;entryDy=0;" edge="1" parent="1" target="0sKz9qopvy_IyiF4oSCB-45">
          <mxGeometry width="50" height="50" relative="1" as="geometry">
            <mxPoint x="140" y="500" as="sourcePoint" />
            <mxPoint x="140" y="270" as="targetPoint" />
          </mxGeometry>
        </mxCell>
        <mxCell id="0sKz9qopvy_IyiF4oSCB-45" value="" style="rounded=0;whiteSpace=wrap;html=1;" vertex="1" parent="1">
          <mxGeometry x="130" y="310" width="20" height="40" as="geometry" />
        </mxCell>
        <mxCell id="0sKz9qopvy_IyiF4oSCB-47" value="" style="rounded=0;whiteSpace=wrap;html=1;" vertex="1" parent="1">
          <mxGeometry x="580" y="310" width="20" height="40" as="geometry" />
        </mxCell>
        <mxCell id="0sKz9qopvy_IyiF4oSCB-50" value="" style="endArrow=none;html=1;rounded=0;entryX=0.5;entryY=1;entryDx=0;entryDy=0;" edge="1" parent="1">
          <mxGeometry width="50" height="50" relative="1" as="geometry">
            <mxPoint x="289.5" y="500" as="sourcePoint" />
            <mxPoint x="290" y="350" as="targetPoint" />
          </mxGeometry>
        </mxCell>
        <mxCell id="0sKz9qopvy_IyiF4oSCB-52" value="" style="endArrow=none;html=1;rounded=0;entryX=0.5;entryY=1;entryDx=0;entryDy=0;" edge="1" parent="1">
          <mxGeometry width="50" height="50" relative="1" as="geometry">
            <mxPoint x="439.5" y="500" as="sourcePoint" />
            <mxPoint x="440" y="350" as="targetPoint" />
          </mxGeometry>
        </mxCell>
        <mxCell id="0sKz9qopvy_IyiF4oSCB-54" value="" style="endArrow=none;html=1;rounded=0;entryX=0.5;entryY=1;entryDx=0;entryDy=0;" edge="1" parent="1" target="0sKz9qopvy_IyiF4oSCB-53">
          <mxGeometry width="50" height="50" relative="1" as="geometry">
            <mxPoint x="739.5" y="500" as="sourcePoint" />
            <mxPoint x="740" y="270" as="targetPoint" />
          </mxGeometry>
        </mxCell>
        <mxCell id="0sKz9qopvy_IyiF4oSCB-53" value="" style="rounded=0;whiteSpace=wrap;html=1;" vertex="1" parent="1">
          <mxGeometry x="730" y="310" width="20" height="40" as="geometry" />
        </mxCell>
        <mxCell id="0sKz9qopvy_IyiF4oSCB-55" value="" style="endArrow=classic;html=1;rounded=0;exitX=1;exitY=0.5;exitDx=0;exitDy=0;entryX=0;entryY=0.5;entryDx=0;entryDy=0;" edge="1" parent="1">
          <mxGeometry width="50" height="50" relative="1" as="geometry">
            <mxPoint x="150" y="319.5" as="sourcePoint" />
            <mxPoint x="580" y="319.5" as="targetPoint" />
          </mxGeometry>
        </mxCell>
        <mxCell id="0sKz9qopvy_IyiF4oSCB-70" value="calculate final grade" style="edgeLabel;html=1;align=center;verticalAlign=middle;resizable=0;points=[];" vertex="1" connectable="0" parent="0sKz9qopvy_IyiF4oSCB-55">
          <mxGeometry x="-0.3042" y="1" relative="1" as="geometry">
            <mxPoint x="40" as="offset" />
          </mxGeometry>
        </mxCell>
        <mxCell id="0sKz9qopvy_IyiF4oSCB-56" value="" style="endArrow=none;html=1;rounded=0;exitX=1;exitY=0.5;exitDx=0;exitDy=0;entryX=0;entryY=0.5;entryDx=0;entryDy=0;startArrow=classic;startFill=1;endFill=0;" edge="1" parent="1">
          <mxGeometry width="50" height="50" relative="1" as="geometry">
            <mxPoint x="150" y="339.5" as="sourcePoint" />
            <mxPoint x="580" y="339.5" as="targetPoint" />
          </mxGeometry>
        </mxCell>
        <mxCell id="0sKz9qopvy_IyiF4oSCB-71" value="display final grade" style="edgeLabel;html=1;align=center;verticalAlign=middle;resizable=0;points=[];" vertex="1" connectable="0" parent="0sKz9qopvy_IyiF4oSCB-56">
          <mxGeometry x="-0.3042" y="1" relative="1" as="geometry">
            <mxPoint x="40" as="offset" />
          </mxGeometry>
        </mxCell>
        <mxCell id="0sKz9qopvy_IyiF4oSCB-57" value="" style="endArrow=classic;html=1;rounded=0;exitX=1;exitY=0.25;exitDx=0;exitDy=0;entryX=0;entryY=0.25;entryDx=0;entryDy=0;" edge="1" parent="1">
          <mxGeometry width="50" height="50" relative="1" as="geometry">
            <mxPoint x="600" y="319.5" as="sourcePoint" />
            <mxPoint x="730" y="319.5" as="targetPoint" />
          </mxGeometry>
        </mxCell>
        <mxCell id="0sKz9qopvy_IyiF4oSCB-72" value="find by name" style="edgeLabel;html=1;align=center;verticalAlign=middle;resizable=0;points=[];" vertex="1" connectable="0" parent="0sKz9qopvy_IyiF4oSCB-57">
          <mxGeometry x="-0.4831" y="1" relative="1" as="geometry">
            <mxPoint x="26" as="offset" />
          </mxGeometry>
        </mxCell>
        <mxCell id="0sKz9qopvy_IyiF4oSCB-58" value="" style="endArrow=classic;html=1;rounded=0;exitX=0;exitY=0.75;exitDx=0;exitDy=0;entryX=1;entryY=0.75;entryDx=0;entryDy=0;" edge="1" parent="1">
          <mxGeometry width="50" height="50" relative="1" as="geometry">
            <mxPoint x="730" y="339.5" as="sourcePoint" />
            <mxPoint x="600" y="339.5" as="targetPoint" />
          </mxGeometry>
        </mxCell>
        <mxCell id="0sKz9qopvy_IyiF4oSCB-73" value="calculate final grade" style="edgeLabel;html=1;align=center;verticalAlign=middle;resizable=0;points=[];" vertex="1" connectable="0" parent="0sKz9qopvy_IyiF4oSCB-58">
          <mxGeometry x="0.4215" y="2" relative="1" as="geometry">
            <mxPoint x="32" as="offset" />
          </mxGeometry>
        </mxCell>
      </root>
    </mxGraphModel>
  </diagram>
</mxfile>
